<svg width="87" height="20" viewBox="0 0 87 20" fill="none" xmlns="http://www.w3.org/2000/svg">
    <path d="M18.6548 10.4206C18.0398 9.35528 17.1448 8.55232 16.1163 8.05103C15.9847 8.75362 15.7357 9.44618 15.3585 10.0997L14.7632 11.1327C15.1597 11.3529 15.5049 11.6772 15.7483 12.0987C16.4634 13.3372 16.0388 14.9214 14.8 15.6365C13.5616 16.3517 11.9774 15.9273 11.2623 14.6886L10.0611 12.6115H8.12288L7.15375 14.2899L8.35569 16.3667C9.99786 19.2108 13.6343 20.1853 16.4785 18.5431C19.3223 16.9012 20.2967 13.2647 18.6548 10.4206Z" fill="#6366F1"/>
    <path d="M12.6985 1.69823C9.85436 0.0563388 6.21788 1.03077 4.57598 3.8746C3.96065 4.93992 3.71307 6.11649 3.79309 7.25793C4.46725 7.02066 5.19159 6.8899 5.94632 6.8899L7.13822 6.88879C7.13069 6.43545 7.23915 5.9743 7.48227 5.55302C8.19769 4.31428 9.78159 3.88966 11.0203 4.60508C12.2591 5.32022 12.6834 6.90412 11.9683 8.14286L10.7702 10.2216L11.7391 11.9003L13.6774 11.9001L14.8748 9.82072C16.517 6.97689 15.5426 3.34013 12.6985 1.69823Z" fill="#818CF8"/>
    <path d="M7.8724 16.6457L7.2752 15.6138C6.88626 15.8472 6.43292 15.9838 5.9464 15.9838C4.51584 15.9838 3.35628 14.8242 3.35628 13.3937C3.35628 11.9634 4.51584 10.8038 5.9464 10.8038L8.34554 10.8022L9.31495 9.12373L8.34554 7.44531L5.94612 7.44754C2.66205 7.44754 0 10.1099 0 13.3937C0 16.6777 2.66205 19.3401 5.94612 19.3401C7.17594 19.3401 8.31821 18.9665 9.26644 18.3272C8.72388 17.8618 8.24963 17.2989 7.8724 16.6457Z" fill="#4338CA"/>
    <path d="M23.5254 15.8215V4.41998H28.4468C29.293 4.41998 30.0334 4.574 30.6681 4.88205C31.3027 5.1901 31.7963 5.63362 32.1489 6.21261C32.5015 6.79159 32.6778 7.48563 32.6778 8.29472C32.6778 9.11124 32.496 9.79971 32.1322 10.3601C31.7722 10.9206 31.2656 11.3437 30.6124 11.6294C29.9629 11.9152 29.2039 12.0581 28.3354 12.0581H25.396V9.65311H27.7119C28.0756 9.65311 28.3855 9.60857 28.6416 9.5195C28.9014 9.42671 29.1 9.28011 29.2373 9.07969C29.3783 8.87927 29.4489 8.61762 29.4489 8.29472C29.4489 7.96812 29.3783 7.70275 29.2373 7.49862C29.1 7.29078 28.9014 7.13861 28.6416 7.04211C28.3855 6.9419 28.0756 6.8918 27.7119 6.8918H26.6207V15.8215H23.5254ZM30.206 10.5884L33.0564 15.8215H29.6938L26.9102 10.5884H30.206Z" fill="black"/>
    <path d="M44.6417 8.69556H41.5018C41.4795 8.43576 41.4201 8.20008 41.3236 7.98853C41.2308 7.77698 41.1009 7.59512 40.9339 7.44295C40.7706 7.28707 40.5721 7.1683 40.3382 7.08665C40.1044 7.00129 39.839 6.9586 39.5421 6.9586C39.0225 6.9586 38.5827 7.08479 38.2227 7.33717C37.8664 7.58955 37.5955 7.95141 37.4099 8.42277C37.228 8.89412 37.1371 9.46011 37.1371 10.1207C37.1371 10.8185 37.2299 11.4031 37.4155 11.8744C37.6048 12.342 37.8775 12.6946 38.2338 12.9322C38.5901 13.166 39.0188 13.2829 39.5199 13.2829C39.8056 13.2829 40.0617 13.2476 40.2881 13.1771C40.5145 13.1029 40.7112 12.9971 40.8782 12.8598C41.0453 12.7225 41.1807 12.5573 41.2847 12.3643C41.3923 12.1676 41.4647 11.9468 41.5018 11.7018L44.6417 11.7241C44.6045 12.2066 44.4691 12.6983 44.2352 13.1994C44.0014 13.6967 43.6693 14.1569 43.2387 14.58C42.8119 14.9994 42.283 15.3372 41.6521 15.5933C41.0211 15.8494 40.2881 15.9774 39.4531 15.9774C38.4064 15.9774 37.4674 15.7529 36.6361 15.3038C35.8084 14.8547 35.1533 14.1941 34.6709 13.3219C34.1921 12.4497 33.9527 11.3826 33.9527 10.1207C33.9527 8.85144 34.1976 7.78254 34.6876 6.91407C35.1775 6.04188 35.8381 5.3831 36.6695 4.93773C37.5008 4.48864 38.4287 4.2641 39.4531 4.2641C40.1731 4.2641 40.8356 4.36245 41.4405 4.55916C42.0455 4.75586 42.5762 5.0435 43.0327 5.42207C43.4893 5.79692 43.8567 6.259 44.135 6.80829C44.4134 7.35758 44.5823 7.98667 44.6417 8.69556Z" fill="black"/>
    <path d="M46.046 15.8215V4.41998H49.1413V13.3274H53.7509V15.8215H46.046Z" fill="black"/>
    <path d="M65.6034 10.1207C65.6034 11.3901 65.3566 12.4608 64.863 13.333C64.3694 14.2015 63.7032 14.8603 62.8644 15.3093C62.0256 15.7547 61.0903 15.9774 60.0585 15.9774C59.0193 15.9774 58.0803 15.7529 57.2415 15.3038C56.4065 14.851 55.7421 14.1903 55.2485 13.3219C54.7586 12.4497 54.5136 11.3826 54.5136 10.1207C54.5136 8.85144 54.7586 7.78254 55.2485 6.91407C55.7421 6.04188 56.4065 5.3831 57.2415 4.93773C58.0803 4.48864 59.0193 4.2641 60.0585 4.2641C61.0903 4.2641 62.0256 4.48864 62.8644 4.93773C63.7032 5.3831 64.3694 6.04188 64.863 6.91407C65.3566 7.78254 65.6034 8.85144 65.6034 10.1207ZM62.419 10.1207C62.419 9.43784 62.3281 8.86257 62.1462 8.39493C61.9681 7.92358 61.7027 7.56728 61.3501 7.32604C61.0012 7.08108 60.5707 6.9586 60.0585 6.9586C59.5463 6.9586 59.114 7.08108 58.7614 7.32604C58.4125 7.56728 58.1471 7.92358 57.9653 8.39493C57.7871 8.86257 57.698 9.43784 57.698 10.1207C57.698 10.8037 57.7871 11.3808 57.9653 11.8521C58.1471 12.3198 58.4125 12.6761 58.7614 12.921C59.114 13.1623 59.5463 13.2829 60.0585 13.2829C60.5707 13.2829 61.0012 13.1623 61.3501 12.921C61.7027 12.6761 61.9681 12.3198 62.1462 11.8521C62.3281 11.3808 62.419 10.8037 62.419 10.1207Z" fill="black"/>
    <path d="M76.9006 4.41998V15.8215H74.3174L70.1977 9.83126H70.1309V15.8215H67.0356V4.41998H69.6633L73.7162 10.388H73.8053V4.41998H76.9006Z" fill="black"/>
    <path d="M78.3648 15.8215V4.41998H86.5819V6.91407H81.4601V8.87371H86.1588V11.3678H81.4601V13.3274H86.5596V15.8215H78.3648Z" fill="black"/>
</svg>
